<svg width="19" height="8" viewBox="0 0 19 8" fill="none" xmlns="http://www.w3.org/2000/svg">
<g clip-path="url(#clip0_1474_1645)">
<path d="M15.258 1.88709L9.83868 7.32257C9.77416 7.38709 9.70427 7.43289 9.629 7.45999C9.55373 7.48709 9.47309 7.50042 9.38706 7.49999C9.30104 7.49999 9.2204 7.48644 9.14513 7.45934C9.06986 7.43225 8.99997 7.38666 8.93545 7.32257L3.49998 1.88709C3.34944 1.73656 3.27417 1.54839 3.27417 1.32258C3.27417 1.09677 3.35481 0.903225 3.51611 0.741935C3.6774 0.580645 3.86557 0.5 4.08062 0.5C4.29567 0.5 4.48385 0.580645 4.64514 0.741935L9.38706 5.48386L14.129 0.741935C14.2795 0.591398 14.4651 0.516129 14.6858 0.516129C14.9064 0.516129 15.0972 0.596774 15.258 0.758064C15.4193 0.919354 15.5 1.10753 15.5 1.32258C15.5 1.53763 15.4193 1.7258 15.258 1.88709Z" fill="#25170B"/>
</g>
<defs>
<clipPath id="clip0_1474_1645">
<rect width="7" height="18.2258" fill="white" transform="matrix(0 -1 1 0 0.27417 7.5)"/>
</clipPath>
</defs>
</svg>
