<svg width="0" height="0" class="hidden">
  <symbol id="phone" viewBox="0 0 24 24" xmlns="http://www.w3.org/2000/svg">
    <path
      d="M21.9409 15.7905L16.7587 13.4684L16.7444 13.4618C16.4754 13.3467 16.1819 13.3006 15.8906 13.3274C15.5992 13.3543 15.3191 13.4534 15.0757 13.6158C15.0471 13.6347 15.0195 13.6553 14.9932 13.6774L12.3158 15.9599C10.6196 15.136 8.86837 13.398 8.04446 11.7238L10.3303 9.00565C10.3523 8.97815 10.3732 8.95065 10.393 8.92095C10.5518 8.67818 10.6482 8.3999 10.6736 8.11088C10.6989 7.82185 10.6524 7.53104 10.5382 7.26434V7.25114L8.20946 2.06019C8.05847 1.71178 7.79886 1.42154 7.46936 1.2328C7.13987 1.04407 6.75817 0.966954 6.38125 1.01298C4.8907 1.20912 3.52253 1.94113 2.53225 3.0723C1.54197 4.20347 0.997315 5.65644 1.00001 7.15984C1.00001 15.8939 8.10606 23 16.8401 23C18.3435 23.0027 19.7965 22.458 20.9276 21.4677C22.0588 20.4775 22.7908 19.1093 22.987 17.6187C23.0331 17.2419 22.9561 16.8603 22.7676 16.5309C22.5791 16.2014 22.2891 15.9417 21.9409 15.7905ZM16.8401 21.24C13.1071 21.2359 9.52814 19.7511 6.88849 17.1115C4.24884 14.4718 2.7641 10.8929 2.76002 7.15984C2.75588 6.08566 3.14288 5.04671 3.84874 4.23701C4.5546 3.4273 5.53106 2.90221 6.59575 2.75979C6.59532 2.76418 6.59532 2.76861 6.59575 2.77299L8.90577 7.94304L6.63205 10.6645C6.60897 10.691 6.58801 10.7193 6.56935 10.7492C6.40382 11.0032 6.30671 11.2957 6.28743 11.5982C6.26816 11.9008 6.32738 12.2032 6.45935 12.4762C7.45596 14.5145 9.50967 16.5528 11.57 17.5483C11.8449 17.6791 12.1491 17.7362 12.4528 17.7143C12.7565 17.6923 13.0492 17.5919 13.3025 17.4229C13.3307 17.4039 13.3579 17.3833 13.3839 17.3613L16.058 15.0799L21.2281 17.3954H21.2402C21.0995 18.4616 20.5752 19.4401 19.7653 20.1477C18.9555 20.8553 17.9156 21.2436 16.8401 21.24Z"/>
  </symbol>

  <symbol id="facebook" viewBox="0 0 24 24" xmlns="http://www.w3.org/2000/svg">
    <path
      d="M13.333 23H9.66652C9.42342 23 9.19027 22.8841 9.01837 22.6779C8.84646 22.4717 8.74989 22.1919 8.74989 21.9003V15.0819H6.91663C6.67352 15.0819 6.44038 14.9661 6.26847 14.7598C6.09657 14.5536 6 14.2738 6 13.9822V10.0231C6 9.73147 6.09657 9.45175 6.26847 9.24551C6.44038 9.03927 6.67352 8.92341 6.91663 8.92341H8.74989V7.05386C8.81414 5.37825 9.42877 3.80133 10.4594 2.66788C11.49 1.53444 12.8527 0.936685 14.2497 1.00532H16.9996C17.2427 1.00532 17.4758 1.12118 17.6477 1.32742C17.8196 1.53366 17.9162 1.81339 17.9162 2.10505V5.61538C17.9162 5.90705 17.9352 6.24108 17.7329 6.53846C17.5305 6.83584 17.2063 6.84173 16.9632 6.84173H14.2497V8.92341H16.9996C17.1411 8.92212 17.281 8.96017 17.4082 9.03458C17.5354 9.10899 17.6465 9.21774 17.7329 9.3523C17.8182 9.48889 17.876 9.64744 17.9014 9.81542C17.9269 9.98339 17.9194 10.1562 17.8795 10.3201L16.9629 14.2791C16.9074 14.517 16.7869 14.7255 16.6206 14.8712C16.4543 15.0168 16.252 15.091 16.0463 15.0819H14.2497V21.9003C14.2497 22.1919 14.1531 22.4717 13.9812 22.6779C13.8093 22.8841 13.5761 23 13.333 23ZM10.5832 21.1667L12.4164 21.1667L12.4164 13.9822C12.4164 13.6905 12.513 13.4108 12.6849 13.2046C12.8568 12.9983 13.0899 12.8824 13.333 12.8824H15.3863L15.7896 11.1229H13.333C13.0899 11.1229 12.8568 11.007 12.6849 10.8008C12.513 10.5945 12.4164 10.3148 12.4164 10.0231V7.05386C12.4399 6.48979 12.6434 5.9582 12.9847 5.56922C13.326 5.18023 13.7789 5.15314 14.2497 5.15385H16.0829V2.84615H14.2497C13.3393 2.77961 12.1862 3.51019 11.4998 4.23077C10.8134 4.95135 10.649 5.96245 10.5832 7.05386V10.0231C10.5832 10.3148 10.4866 10.5945 10.3147 10.8008C10.1428 11.007 9.90963 11.1229 9.66652 11.1229H7.83326V12.8824H9.66652C9.90963 12.8824 10.1428 12.9983 10.3147 13.2046C10.4866 13.4108 10.5832 13.6905 10.5832 13.9822L10.5832 21.1667Z"
    />
  </symbol>

  <symbol id="mail" viewBox="0 0 24 24" xmlns="http://www.w3.org/2000/svg">
    <path fill-rule="evenodd" clip-rule="evenodd"
          d="M3 3C1.89543 3 1 3.89543 1 5V18C1 19.1046 1.89543 20 3 20H21C22.1046 20 23 19.1046 23 18V5C23 3.89543 22.1046 3 21 3H3ZM4 4C2.89543 4 2 4.89543 2 6V17C2 18.1046 2.89543 19 4 19H20C21.1046 19 22 18.1046 22 17V6C22 4.89543 21.1046 4 20 4H4Z"/>
    <path fill-rule="evenodd" clip-rule="evenodd"
          d="M5.65081 6.24076C5.23148 5.88134 4.60018 5.9299 4.24076 6.34923C3.88134 6.76855 3.9299 7.39985 4.34923 7.75927L11.3492 13.7593C11.7237 14.0803 12.2763 14.0803 12.6508 13.7593L19.6508 7.75927C20.0701 7.39985 20.1187 6.76855 19.7593 6.34923C19.3999 5.9299 18.7686 5.88134 18.3492 6.24076L12 11.6829L5.65081 6.24076Z"/>
  </symbol>

  <symbol id="maps" viewBox="0 0 24 24" xmlns="http://www.w3.org/2000/svg">
    <path
      d="M11.8 1C9.48124 0.999884 7.25617 1.91493 5.60836 3.54626C3.96055 5.17759 3.02319 7.39336 3 9.71197C3 15.74 10.755 22.4499 11.085 22.7359C11.2842 22.9064 11.5378 23 11.8 23C12.0622 23 12.3157 22.9064 12.515 22.7359C12.9 22.4499 20.5999 15.74 20.5999 9.71197C20.5768 7.39336 19.6394 5.17759 17.9916 3.54626C16.3438 1.91493 14.1187 0.999884 11.8 1ZM11.8 20.4149C9.96298 18.6659 5.19999 13.815 5.19999 9.71197C5.19999 7.96155 5.89535 6.28282 7.13308 5.04508C8.37082 3.80735 10.0495 3.11199 11.8 3.11199C13.5504 3.11199 15.2291 3.80735 16.4669 5.04508C17.7046 6.28282 18.4 7.96155 18.4 9.71197C18.4 13.782 13.637 18.6659 11.8 20.4149Z"
    />
    <path
      d="M11.7999 5.40002C11.0385 5.40002 10.2941 5.62582 9.661 6.04886C9.02787 6.47191 8.53441 7.07319 8.24302 7.77669C7.95162 8.48018 7.87538 9.25428 8.02393 10.0011C8.17248 10.7479 8.53916 11.4339 9.07759 11.9724C9.61602 12.5108 10.302 12.8775 11.0488 13.026C11.7957 13.1746 12.5698 13.0983 13.2733 12.8069C13.9768 12.5155 14.578 12.0221 15.0011 11.389C15.4241 10.7558 15.6499 10.0115 15.6499 9.25001C15.6499 8.22893 15.2443 7.24967 14.5223 6.52766C13.8003 5.80565 12.821 5.40002 11.7999 5.40002ZM11.7999 10.9C11.4736 10.9 11.1546 10.8032 10.8833 10.6219C10.6119 10.4406 10.4004 10.1829 10.2755 9.88144C10.1507 9.57994 10.118 9.24818 10.1817 8.92811C10.2453 8.60805 10.4025 8.31405 10.6332 8.08329C10.864 7.85253 11.158 7.69539 11.478 7.63172C11.7981 7.56806 12.1299 7.60073 12.4314 7.72562C12.7329 7.8505 12.9906 8.06198 13.1719 8.33332C13.3532 8.60466 13.4499 8.92367 13.4499 9.25001C13.4499 9.68762 13.2761 10.1073 12.9667 10.4167C12.6572 10.7262 12.2375 10.9 11.7999 10.9Z"
    />
  </symbol>

  <symbol id="leaf" viewBox="0 0 578 599" xmlns="http://www.w3.org/2000/svg">
    <path d="M394.614 184.388C371.724 262.208 303.369 344.476 152.956 419.609C60.5758 465.759 19.1889 535.31 1.57471 597.704" stroke="currentColor" stroke-width="1.19" stroke-miterlimit="10" fill="none"/>
    <path d="M317.2 307.455C360.1 293.184 399.28 286.279 444.492 283.887C499.983 280.97 550.451 261.578 577.376 209.929C537.902 245.292 496.936 258.367 444.976 261.935C396.505 265.251 354.509 274.233 317.179 307.455H317.2Z" />
    <path d="M266.732 350.709C308.876 351.863 344.819 357.005 384.356 371.171C437.64 390.248 491.681 391.675 535.17 350.31C484.534 370.731 444.093 368.149 393.815 351.36C350.284 336.837 310.326 332.744 266.732 350.709Z" />
    <path d="M206.681 390.479C229.676 392.347 251.977 391.151 273.459 401.497C290.484 409.682 304.42 423.009 320.227 433.167C359.785 458.582 409.096 456.945 442.096 421.225C395.013 439.337 362.37 435.832 321.004 406.975C283.905 381.098 250.233 372.64 206.702 390.479H206.681Z" />
    <path d="M133.618 430.039C173.849 441.33 197.516 450.418 227.448 478.582C266.354 515.162 313.122 535.981 366.784 520.43C316.38 513.924 281.047 496.904 243.17 463.451C209.876 434.027 178.431 422.421 133.597 430.039H133.618Z" />
    <path d="M133.618 430.039C121.721 389.934 133.849 346.91 118.4 307.392C101.647 264.579 56.7502 239.709 11.4326 242.606C41.6373 255.114 72.6618 270.266 90.2129 299.354C114.427 339.481 100.87 394.173 133.639 430.039H133.618Z" />
    <path d="M266.733 350.709C291.662 296.437 262.466 254.799 224.316 217.841C194.468 188.921 188.163 162.772 178.683 122.015C172.987 149.991 172.461 179.666 186.775 205.354C200.375 229.762 224.526 244.977 241.993 266.153C262.319 290.813 267.658 319.418 266.754 350.688L266.733 350.709Z" />
    <path d="M206.681 390.479C186.502 354.529 190.328 320.404 181.542 281.096C171.242 234.988 139.608 197.064 93.3657 183.843C133.05 218.135 155.015 254.778 164.243 306.973C170.149 340.342 175.698 371.591 206.681 390.479Z" />
    <path d="M317.2 307.455C354.299 267.937 338.871 221.871 305.009 186.634C296.202 177.462 286.428 169.152 278.146 159.519C256.475 134.292 258.766 109.234 262.171 78.1316C248.488 101.196 239.597 128.458 250.884 154.503C262.739 181.849 289.538 198.386 307.468 221.178C328.487 247.936 329.055 276.164 317.221 307.434L317.2 307.455Z" />
    <path d="M375.087 231.588C399.217 197.883 428.812 161.219 427.278 117.692C425.554 69.3171 389.905 23.4818 349.065 0.0394287C368.97 28.0359 390.473 57.5435 400.394 90.8286C415.948 142.981 383.999 181.996 375.087 231.588Z" />
  </symbol>

</svg>
